<?xml version="1.0" encoding="utf-8"?>
<!-- Generator: Adobe Illustrator 19.0.0, SVG Export Plug-In . SVG Version: 6.00 Build 0)  -->
<svg version="1.1" id="레이어_1" xmlns="http://www.w3.org/2000/svg" xmlns:xlink="http://www.w3.org/1999/xlink" x="0px"
	 y="0px" viewBox="100 301 800 200" style="enable-background:new 100 301 800 200;" xml:space="preserve">
<style type="text/css">
	.st0{fill:#0199FF;}
</style>
<path id="XMLID_61_" class="st0" d="M821.2,369.5l3.6-23.6c0.1-0.5,0.5-0.9,1-0.9H899c0.6,0,1.1,0.6,1,1.2l-3.6,23.6
	c-0.1,0.5-0.5,0.9-1,0.9h-73C821.6,370.7,821.2,370.1,821.2,369.5z"/>
<path id="XMLID_58_" class="st0" d="M810.1,440.8l3.6-23.6c0.1-0.5,0.5-0.9,1-0.9h22c0.6,0,1.1,0.6,1,1.2l-3.6,23.6
	c-0.1,0.5-0.5,0.9-1,0.9h-22C810.5,442,810,441.4,810.1,440.8z"/>
<path id="XMLID_55_" class="st0" d="M815.7,405.1l3.6-23.6c0.1-0.5,0.5-0.9,1-0.9h47.5c0.6,0,1.1,0.6,1,1.2l-3.6,23.6
	c-0.1,0.5-0.5,0.9-1,0.9h-47.5C816.1,406.4,815.6,405.8,815.7,405.1z"/>
<g id="XMLID_27_">
	<g id="XMLID_263_">
		<path id="XMLID_289_" class="st0" d="M155.3,383.8l5.7-37.5h21.3l-14.6,95.9h-21.2l6.2-41.1h-25.2l-6.2,41.1H100l14.5-95.9h21.3
			l-5.7,37.5H155.3z"/>
		<path id="XMLID_286_" class="st0" d="M239.4,416.3h-37.1c-0.3,3.4,0.6,6.1,2.6,8.3c2,2.2,5.1,3.2,9.4,3.2c2.8,0,6.1-0.6,10-2
			c3.9-1.3,7.2-3.3,10.1-5.8l5.4,12.7c-3.5,3.8-8.3,6.8-14,8.9c-5.9,2.1-11.3,3.1-16.3,3.1c-10.5,0-18-3.6-22.5-10.8s-6-16-4.4-26.2
			c1.9-12.3,6-22.1,12.4-29.6c6.4-7.4,15-11.3,25.9-11.3c5.9,0,10.7,1.3,14.6,3.9c3.7,2.7,6.3,6.2,7.7,10.8
			c1.3,4.5,2.1,9.4,2.1,14.7c0,5.2-0.6,10.8-2,16.9c-0.3,1.2-0.6,2.1-1.1,2.5C241.6,416.1,240.8,416.3,239.4,416.3z M218.1,383.1
			c-3.4,0-6.3,1.5-8.7,4.5c-2.4,3-4,7.2-4.8,12.5h20.6c0.8-5.2,0.7-9.3-0.6-12.4C223.4,384.7,221.2,383.1,218.1,383.1z"/>
		<path id="XMLID_284_" class="st0" d="M249.6,442.1l14.7-96.8h21.5L271,442.1H249.6z"/>
		<path id="XMLID_282_" class="st0" d="M284.2,442.1l14.7-96.8h21.5l-14.7,96.8H284.2z"/>
		<path id="XMLID_279_" class="st0" d="M343.5,369.8c4.4-2.1,9.4-3.1,15-3.1s10.3,1,14.2,3.1c3.8,2.1,6.6,5,8.4,8.7
			c1.8,3.7,2.8,7.9,3.2,12.3c0.4,4.4,0.2,9.4-0.6,14.8c-0.8,5.4-2.1,10.3-3.8,14.8c-1.8,4.4-4,8.6-6.9,12.3s-6.5,6.6-10.9,8.7
			c-4.4,2.1-9.5,3.1-15.2,3.1c-5.6,0-10.3-1-14-3.1c-3.7-2.1-6.5-5-8.3-8.7s-2.8-7.9-3.1-12.3c-0.4-4.4-0.1-9.4,0.7-14.9
			c0.8-5.4,2.1-10.3,3.8-14.8c1.8-4.4,4-8.6,6.8-12.3C335.4,374.9,339,372,343.5,369.8z M363,405.7c0.7-4.9,1.1-8.9,1.1-12
			s-0.6-5.7-2-7.9c-1.2-2.2-3.3-3.2-6.1-3.2c-4,0-7,2-9,6c-2,3.9-3.6,9.7-4.6,17.1c-1.1,7.5-1.3,13.2-0.5,17.1
			c0.8,3.9,3.2,5.8,7.2,5.8c4.1,0,7.1-2,9.2-5.9C360.3,418.8,361.8,413.1,363,405.7z"/>
		<path id="XMLID_277_" class="st0" d="M453,415.2l7.9,15c-9.9,9.1-21.1,13.7-33.4,13.9c-13.4,0.2-23.3-4-29.5-12.4
			c-6.2-8.5-8.2-20.5-5.8-35.9c2.4-15.9,8.1-28.5,16.8-37.8c8.8-9.3,19.5-13.7,32.1-13.4c12.3,0.2,22,4.2,29,12.1l-12.3,16
			c-6.1-6.6-13-9.8-20.7-9.4c-5.7,0.3-10.6,3.4-14.9,9.3c-4.3,5.9-7.1,13.1-8.4,21.9c-1.4,9.5-0.9,17.1,1.8,22.8
			c2.6,5.7,7.2,8.6,14,8.7C437.7,425.9,445.4,422.3,453,415.2z"/>
		<path id="XMLID_274_" class="st0" d="M486,397.4c3.3-1.9,7.5-3.4,12.6-4.5c5.1-1.2,9.7-1.8,13.8-1.5c0.9-6.1-2-9.1-8.6-9.1
			c-3,0-6.5,0.7-10.4,2.1c-3.9,1.4-7.5,3.7-10.8,6.9l-8.5-11.1c8.9-9.5,20.1-14.3,33.7-14.3c8.1,0,14.5,2.4,19.2,7.1
			c4.8,4.8,6.5,11.2,5.3,19.3l-7.6,50.4h-16.9l0.2-3.9c-5,3.7-11.4,5.7-19.3,5.9c-6.6,0.2-12-1.8-16-5.7c-4.1-3.9-5.5-9.9-4.1-18
			C470,410.9,475.9,403.1,486,397.4z M486.7,421.9c-0.3,2.2,0.1,3.9,1.3,5.3c1.2,1.3,2.7,2.1,4.5,2.1c5.8,0,10.1-1.7,12.8-4.9
			c2.7-3.2,4.3-8.8,4.6-16.7c-3.3,0-6.5,0.4-9.6,1.2c-3.1,0.8-6.1,2.3-8.9,4.5C488.9,415.7,487.2,418.5,486.7,421.9z"/>
		<path id="XMLID_272_" class="st0" d="M568.3,442.1l6.7-44.3c0.7-4.4,0.7-7.6,0.1-9.4c-0.6-1.8-2.1-2.6-4.4-2.2
			c-3.7,0.7-6.1,4.2-7,10.5l-6.9,45.3h-20.5l11.3-73.9h19l-0.7,4.5c3.1-2.7,6.8-4.2,11.5-4.9c8-1,13.2,1.4,15.8,7.5
			c1.9-2.1,4.3-3.8,7.5-5.3c3.2-1.4,6.1-2.3,8.8-2.5c7.5-0.7,12.7,1.2,15.5,6c2.8,4.8,3.5,11.4,2.2,19.9l-7.3,48.2h-19.1l6.7-44.4
			c0.7-4.4,0.7-7.6,0.2-9.4c-0.5-1.8-2-2.5-4.2-2.2c-4.1,0.7-6.6,4.2-7.6,10.6l-6.8,45.2h-20.6V442.1z"/>
		<path id="XMLID_269_" class="st0" d="M630.4,457.5l13.5-89.2h20.7l-0.6,3.8c2.3-1.5,4.9-2.8,7.9-3.7c3-0.9,5.6-1.4,7.7-1.4
			c6.4,0,11.5,1.7,15.2,5c3.7,3.3,6.1,7.5,7,12.6c0.9,5.1,0.9,10.9-0.1,17.6c-1.5,10.3-5.3,18.9-10.9,25.6
			c-5.8,6.7-13.3,10.1-22.8,10.1c-4.8,0-9.3-1-13.4-3.2l-3.5,22.9H630.4L630.4,457.5z M673.2,383.3c-7.2,0-11.9,6-13.6,18
			c-2.1,13.3,0.7,20,8.4,20c3.5,0,6.4-1.9,8.7-5.6c2.3-3.7,3.8-8.5,4.8-14.2C683.2,389.4,680.5,383.3,673.2,383.3z"/>
		<path id="XMLID_266_" class="st0" d="M730,369.8c4.4-2.1,9.4-3.1,15-3.1c5.6,0,10.3,1,14.2,3.1c3.8,2.1,6.6,5,8.4,8.7
			c1.8,3.7,2.8,7.9,3.2,12.3c0.4,4.4,0.2,9.4-0.6,14.8c-0.8,5.4-2.1,10.3-3.8,14.8c-1.8,4.4-4,8.6-6.9,12.3
			c-2.9,3.7-6.5,6.6-10.9,8.7c-4.4,2.1-9.5,3.1-15.2,3.1c-5.6,0-10.3-1-14-3.1c-3.7-2.1-6.5-5-8.3-8.7c-1.8-3.7-2.8-7.9-3.1-12.3
			c-0.4-4.4-0.1-9.4,0.7-14.9c0.8-5.4,2.1-10.3,3.8-14.8c1.8-4.4,4-8.6,6.8-12.3C722,374.9,725.6,372,730,369.8z M749.6,405.7
			c0.7-4.9,1.1-8.9,1.1-12s-0.6-5.7-2-7.9c-1.2-2.2-3.3-3.2-6.1-3.2c-4,0-7,2-9,6c-2,3.9-3.6,9.7-4.6,17.1
			c-1.1,7.5-1.3,13.2-0.5,17.1c0.8,3.9,3.2,5.8,7.2,5.8c4.1,0,7.1-2,9.2-5.9C746.8,418.8,748.5,413.1,749.6,405.7z"/>
		<path id="XMLID_264_" class="st0" d="M775.4,442.1l14.7-96.8h21.5l-14.7,96.8H775.4z"/>
	</g>
</g>
</svg>
