<?xml version="1.0" encoding="utf-8"?>
<!-- Generator: Adobe Illustrator 19.0.0, SVG Export Plug-In . SVG Version: 6.00 Build 0)  -->
<svg version="1.1" id="레이어_1" xmlns="http://www.w3.org/2000/svg" xmlns:xlink="http://www.w3.org/1999/xlink" x="0px"
	 y="0px" viewBox="0 0 64 64" style="enable-background:new 0 0 64 64;" xml:space="preserve">
<style type="text/css">
	.st0{fill:#01438F;}
</style>
<path id="XMLID_2_" class="st0" d="M18.5,40.6h-5.5c-0.2,0-0.3-0.1-0.2-0.3l3.4-22c0-0.1,0.1-0.2,0.2-0.2H22c0.2,0,0.3,0.1,0.2,0.3
	l-3.4,22C18.8,40.5,18.7,40.6,18.5,40.6z"/>
<path id="XMLID_3_" class="st0" d="M30.1,40.6h-5.5c-0.2,0-0.3-0.1-0.2-0.3l3.4-22c0-0.1,0.1-0.2,0.2-0.2h5.5c0.2,0,0.3,0.1,0.2,0.3
	l-3.4,22C30.3,40.5,30.2,40.6,30.1,40.6z"/>
<path id="XMLID_7_" class="st0" d="M14.1,32l0.9-5.5c0-0.1,0.1-0.2,0.2-0.2h17c0.2,0,0.3,0.1,0.2,0.3l-0.9,5.5
	c0,0.1-0.1,0.2-0.2,0.2h-17C14.2,32.3,14.1,32.2,14.1,32z"/>
<path id="XMLID_4_" class="st0" d="M35.6,23.7l0.9-5.5c0-0.1,0.1-0.2,0.2-0.2h17c0.2,0,0.3,0.1,0.2,0.3l-0.9,5.5
	c0,0.1-0.1,0.2-0.2,0.2h-17C35.7,24,35.6,23.9,35.6,23.7z"/>
<path id="XMLID_5_" class="st0" d="M33,40.3l0.9-5.5c0-0.1,0.1-0.2,0.2-0.2h5.1c0.2,0,0.3,0.1,0.2,0.3l-0.9,5.5
	c0,0.1-0.1,0.2-0.2,0.2h-5.1C33.1,40.6,33,40.4,33,40.3z"/>
<path id="XMLID_6_" class="st0" d="M34.3,32l0.9-5.5c0-0.1,0.1-0.2,0.2-0.2h11.1c0.2,0,0.3,0.1,0.2,0.3l-0.9,5.5
	c0,0.1-0.1,0.2-0.2,0.2H34.5C34.4,32.3,34.3,32.2,34.3,32z"/>
</svg>
