<?xml version="1.0" encoding="utf-8"?>
<!-- Generator: Adobe Illustrator 19.0.0, SVG Export Plug-In . SVG Version: 6.00 Build 0)  -->
<svg version="1.1" id="레이어_1" xmlns="http://www.w3.org/2000/svg" xmlns:xlink="http://www.w3.org/1999/xlink" x="0px"
	 y="0px" viewBox="-261.3 406.7 56.7 28.3" style="enable-background:new -261.3 406.7 56.7 28.3;" xml:space="preserve">
<style type="text/css">
	.st0{opacity:0.2;}
</style>
<g>
	<path class="st0" d="M-231.3,410.3l-3.4,22c0,0.1-0.1,0.2-0.2,0.2h-5.5c-0.2,0-0.3-0.1-0.2-0.3l1.2-8h-5.6l-1.3,8.1
		c0,0.1-0.1,0.2-0.3,0.2h-5.5c-0.2,0-0.3-0.1-0.2-0.3l3.4-22c0-0.1,0.1-0.2,0.2-0.2h5.6c0.2,0,0.3,0.1,0.2,0.3l-1.2,7.9h5.6l1.2-8
		c0-0.1,0.1-0.2,0.2-0.2h5.5C-231.3,410-231.2,410.1-231.3,410.3z"/>
	<path id="XMLID_4_" class="st0" d="M-229.4,415.6l0.9-5.5c0-0.1,0.1-0.2,0.2-0.2h17c0.2,0,0.3,0.1,0.2,0.3l-0.9,5.5
		c0,0.1-0.1,0.2-0.2,0.2h-17C-229.3,415.9-229.4,415.8-229.4,415.6z"/>
	<path id="XMLID_5_" class="st0" d="M-232,432.2l0.9-5.5c0-0.1,0.1-0.2,0.2-0.2h5.1c0.2,0,0.3,0.1,0.2,0.3l-0.9,5.5
		c0,0.1-0.1,0.2-0.2,0.2h-5.1C-231.9,432.5-232,432.3-232,432.2z"/>
	<path id="XMLID_6_" class="st0" d="M-230.7,423.9l0.9-5.5c0-0.1,0.1-0.2,0.2-0.2h11.1c0.2,0,0.3,0.1,0.2,0.3l-0.9,5.5
		c0,0.1-0.1,0.2-0.2,0.2h-11.1C-230.6,424.2-230.7,424.1-230.7,423.9z"/>
</g>
</svg>
